<?xml version="1.0" encoding="UTF-8"?>
<svg version="1.1" xmlns="http://www.w3.org/2000/svg" width="1200" height="821">
<path d="M0 0 C1.82416443 0.00273422 1.82416443 0.00273422 3.68518066 0.00552368 C21.31566434 0.05004218 38.57544267 0.41820405 56 3.3125 C57.66506592 3.57788574 57.66506592 3.57788574 59.36376953 3.84863281 C90.17724136 8.84961394 119.5284784 17.18796791 147 32.3125 C147.67401855 32.68310547 148.34803711 33.05371094 149.04248047 33.43554688 C163.92395077 41.714893 177.93974305 51.38027213 191 62.3125 C192.01320313 63.15296875 193.02640625 63.9934375 194.0703125 64.859375 C205.93887064 74.77720044 217.14414858 85.28660213 228.05639648 96.23852539 C229.82487219 98.01241003 231.59870044 99.78081777 233.37304688 101.54882812 C239.13001489 107.30242849 244.73283782 113.10117949 250 119.3125 C251.45445517 120.92018373 252.91220895 122.52489715 254.375 124.125 C257.50422827 127.58780082 260.50500349 131.11929003 263.4375 134.75 C266.51336588 138.55337503 269.68753166 142.21332652 273 145.8125 C277.01974536 150.18420463 280.79988195 154.69036886 284.53125 159.30859375 C287.40037224 162.79966179 290.34644461 166.21628232 293.3125 169.625 C293.86365479 170.25857422 294.41480957 170.89214844 294.98266602 171.54492188 C296.10178159 172.83098455 297.22100376 174.11695448 298.34033203 175.40283203 C304.52958869 182.52439213 310.69242134 189.66233693 316.625 197 C320.47811177 201.74658696 324.53424543 206.27017639 328.671875 210.76953125 C330.60694262 212.88317054 332.50208297 215.01909848 334.375 217.1875 C342.03970511 225.97256804 350.02291711 234.42869685 358.25 242.6875 C359.2234436 243.66783203 359.2234436 243.66783203 360.21655273 244.66796875 C364.64779346 249.08515275 369.26058294 253.23028536 374 257.3125 C375.05981699 258.24992094 376.11848643 259.18864153 377.17578125 260.12890625 C392.89976824 273.97010998 409.92934005 285.74667372 428 296.3125 C428.71833008 296.73370117 429.43666016 297.15490234 430.17675781 297.58886719 C467.0523674 318.8990694 507.21356602 325.89620637 549 329.3125 C544.69765321 334.21538269 539.70785813 337.04985729 534 340.125 C533.02812744 340.64908447 532.05625488 341.17316895 531.05493164 341.71313477 C499.58223589 358.30061181 460.03927571 367.04155116 425 357.3125 C424.19868652 357.09207031 423.39737305 356.87164062 422.57177734 356.64453125 C398.9911025 349.92623836 379.26490862 338.10467177 361.359375 321.4609375 C357.91081367 318.32069125 354.27563058 315.42519331 350.64453125 312.5 C348.21760108 310.49249499 345.92358234 308.40150669 343.625 306.25 C335.02508457 298.554532 324.84244353 293.12904012 314 289.3125 C313.11570312 288.9928125 312.23140625 288.673125 311.3203125 288.34375 C297.91164408 284.24138119 280.75263183 284.28398314 268 290.3125 C257.91444185 295.81890092 250.92684056 303.6528362 247.66015625 314.75390625 C243.08727792 339.40415569 253.77710278 362.01665927 265 383.3125 C265.60457031 384.47523438 266.20914062 385.63796875 266.83203125 386.8359375 C274.80213575 401.50092978 285.4440149 414.340083 297 426.3125 C297.79664063 427.16070312 298.59328125 428.00890625 299.4140625 428.8828125 C306.05189462 435.78010386 313.35053382 441.59655144 321 447.3125 C321.5779834 447.74594727 322.1559668 448.17939453 322.75146484 448.62597656 C330.90989194 454.70390107 339.33315713 460.20455676 348.16162109 465.25976562 C349.89160545 466.25042864 351.6121656 467.25749742 353.33203125 468.265625 C372.87701124 479.25548803 394.3191758 486.82056404 416 492.3125 C417.38203613 492.66368896 417.38203613 492.66368896 418.79199219 493.02197266 C447.50158203 500.14101729 476.75421875 502.5465423 506.25 502.5625 C507.92857086 502.56351212 507.92857086 502.56351212 509.64105225 502.56454468 C525.62309901 502.54921947 541.24997721 502.29307636 557 499.3125 C558.01046387 499.12494141 559.02092773 498.93738281 560.06201172 498.74414062 C572.48042368 496.39033643 584.77801928 493.52975669 597 490.3125 C598.32 492.2925 599.64 494.2725 601 496.3125 C594.97256475 501.26278902 588.93142578 506.19231749 582.8203125 511.0390625 C580.70904011 512.7409469 578.62673894 514.462538 576.5546875 516.2109375 C527.4894108 557.3385315 461.39114325 583.70484008 396.76464844 578.02832031 C371.7713958 574.85200575 348.77179182 563.57089475 329 548.3125 C328.0925 547.61769531 327.185 546.92289063 326.25 546.20703125 C320.50840672 541.6530592 315.1137586 536.73749494 309.75 531.75 C309.08822754 531.13680908 308.42645508 530.52361816 307.74462891 529.8918457 C303.18978837 525.60476904 299.06731072 521.05960718 295 516.3125 C293.54554483 514.70481627 292.08779105 513.10010285 290.625 511.5 C286.75283181 507.20992495 283.08424352 502.78831921 279.44921875 498.296875 C276.68189198 494.92488513 273.84849585 491.61587679 271 488.3125 C266.68048535 483.29950394 262.44902234 478.22711883 258.27734375 473.08984375 C255.25812286 469.40774075 252.17498055 465.78187107 249.09008789 462.15478516 C246.14028692 458.67987521 243.24328348 455.16787977 240.375 451.625 C236.75165505 447.17346192 232.98036128 442.88867545 229.1171875 438.64453125 C227.21948831 436.55426111 225.35266585 434.44263885 223.5 432.3125 C203.39211153 409.29911388 181.90460073 387.5468838 150 384.3125 C132.11688387 383.12029226 114.81601506 387.06916638 100.4765625 398.08203125 C91.74208312 405.94857341 86.68541683 416.98958139 85.7265625 428.6328125 C84.8879194 460.04967312 102.22575938 492.75788985 122 516.3125 C122.72703125 517.18003906 123.4540625 518.04757812 124.203125 518.94140625 C133.54799761 529.68128682 143.93828422 538.74192029 156 546.3125 C156.59232422 546.68616699 157.18464844 547.05983398 157.79492188 547.44482422 C178.79913642 560.47521658 202.79332684 567.25606839 227 571.3125 C227 571.9725 227 572.6325 227 573.3125 C200.23238494 578.0219508 200.23238494 578.0219508 190 578.3125 C189.36030273 578.33296387 188.72060547 578.35342773 188.06152344 578.37451172 C144.65687136 579.59533062 103.03568678 566.61520514 65 546.3125 C64.28682617 545.93657715 63.57365234 545.5606543 62.83886719 545.17333984 C41.10874495 533.6677723 21.70756431 519.34269494 4 502.3125 C3.50870605 501.84312012 3.01741211 501.37374023 2.51123047 500.89013672 C-4.21211423 494.43798575 -10.31042219 487.68966445 -16 480.3125 C-16.42249023 479.7664209 -16.84498047 479.2203418 -17.28027344 478.65771484 C-28.60383604 463.92219492 -38.20101592 448.17980427 -46 431.3125 C-46.35803711 430.54663574 -46.71607422 429.78077148 -47.08496094 428.99169922 C-69.97734639 379.52389491 -74.08726479 326.33915549 -75.5 272.6875 C-77.05373521 213.89747325 -85.46947822 147.70227956 -128 103.3125 C-128.65613281 102.60480469 -129.31226563 101.89710937 -129.98828125 101.16796875 C-153.74717877 76.26635873 -186.19464888 72.28964235 -218.83203125 71.42578125 C-220.55465135 71.38640628 -222.27729538 71.34798532 -224 71.3125 C-220.82524363 66.85824484 -217.29232277 64.11860763 -212.8125 61.125 C-211.74974854 60.40944946 -211.74974854 60.40944946 -210.66552734 59.67944336 C-208.45441129 58.20658383 -206.23122694 56.75468891 -204 55.3125 C-203.34338379 54.88775391 -202.68676758 54.46300781 -202.01025391 54.02539062 C-160.42078314 27.52776883 -109.8631204 12.78181895 -61.625 4.5625 C-59.88101929 4.26424316 -59.88101929 4.26424316 -58.10180664 3.95996094 C-38.71359402 0.80635057 -19.62583667 -0.06098613 0 0 Z M-42.6875 42.5 C-43.83710205 42.62802002 -44.9867041 42.75604004 -46.17114258 42.88793945 C-58.2548587 44.32143303 -70.12363608 46.69488415 -82 49.3125 C-78.68032206 56.61885815 -70.02317566 61.73353017 -62.8125 64.8125 C-52.45499726 68.37443042 -42.36493415 67.75946046 -32.3125 63.0546875 C-26.37745553 59.38538636 -21.36719003 54.55937531 -19.19140625 47.80078125 C-18.69937468 45.63923568 -18.32907529 43.50295269 -18 41.3125 C-26.31701804 41.15314873 -34.42417856 41.56227909 -42.6875 42.5 Z " fill="#FD4E00" transform="translate(224,-0.3125)"/>
<path d="M0 0 C0.99 0 1.98 0 3 0 C3 0.66 3 1.32 3 2 C3.71969971 2.27457031 4.43939941 2.54914062 5.1809082 2.83203125 C7.93329449 3.97236346 10.48951672 5.26411792 13.10546875 6.6875 C14.07943604 7.21617676 15.05340332 7.74485352 16.05688477 8.28955078 C17.08998779 8.85399902 18.12309082 9.41844727 19.1875 10 C20.26249756 10.58378418 21.33749512 11.16756836 22.44506836 11.76904297 C27.9717206 14.77640362 33.47320528 17.82181661 38.94482422 20.92797852 C75.34198142 41.50156184 114.94896773 55.46213368 157 57 C158.01449219 57.04125 159.02898437 57.0825 160.07421875 57.125 C186.85195684 57.67358362 213.3544234 51.57378172 238.1875 41.875 C258.9318604 33.92222056 282.20163606 30.75060428 303.14746094 39.94238281 C315.71752107 45.71752107 315.71752107 45.71752107 319 49 C314.25674212 50.71963473 309.44602812 51.88967896 304.54614258 53.05493164 C286.39792002 56.53393896 286.39792002 56.53393896 272 67 C269.65994982 71.12294556 269.43185041 75.35400258 270 80 C272.30895025 86.79103014 276.82874606 90.42439596 283.08984375 93.53515625 C306.62647927 103.52736525 331.78569498 105.91373133 357.10791016 106.66381836 C398.30246137 107.90591003 435.67879944 117.04116342 469.0625 142.0625 C469.96782471 142.73539063 470.87314941 143.40828125 471.8059082 144.1015625 C479.58155422 150.06140892 483.89215245 155.67645735 487 165 C486.47607666 164.83491943 485.95215332 164.66983887 485.41235352 164.49975586 C462.83634101 157.5476879 439.4748876 151.73895706 416 149 C415.22736816 148.90750977 414.45473633 148.81501953 413.65869141 148.71972656 C392.13197832 146.34219205 370.02513125 149.89803995 348.625 152.3125 C347.21074234 152.47185532 347.21074234 152.47185532 345.76791382 152.63442993 C335.90118788 153.75489736 326.05673222 154.94874128 316.23828125 156.4375 C285.38716321 161.06784195 252.78912881 163.31102826 222 157 C220.55512207 156.70996094 220.55512207 156.70996094 219.08105469 156.4140625 C193.55228826 151.13056181 169.34449198 142.54208785 146 131 C145.17628906 130.59700684 144.35257813 130.19401367 143.50390625 129.77880859 C124.58956086 120.44975031 106.52053103 109.16753063 89.77734375 96.34912109 C87.88799608 94.91498164 85.97808218 93.51216034 84.0625 92.11328125 C63.53846948 77.06463374 43.2811927 59.62175614 27 40 C26.57493164 39.48872559 26.14986328 38.97745117 25.71191406 38.45068359 C15.88631914 26.571627 7.09354534 14.11667878 -1 1 C-0.67 0.67 -0.34 0.34 0 0 Z " fill="#FD4E00" transform="translate(246,551)"/>
<path d="M0 0 C2.20933162 0.74891722 3.66967955 1.64892742 5.53149414 3.04443359 C6.18746582 3.52605957 6.8434375 4.00768555 7.51928711 4.50390625 C8.22327637 5.0251709 8.92726563 5.54643555 9.65258789 6.08349609 C18.76457749 12.66186004 28.26239273 18.27665884 38.09008789 23.70849609 C38.84483398 24.13372559 39.59958008 24.55895508 40.37719727 24.99707031 C107.81229977 62.89653047 186.14331704 66.54291114 259.61364746 46.00299072 C262.46379973 45.19685939 265.3123909 44.38544607 268.16040039 43.57177734 C269.1543985 43.28824905 270.14839661 43.00472076 271.17251587 42.71260071 C276.17214315 41.28391065 281.16747213 39.84229617 286.15698242 38.37866211 C326.6238542 26.61810834 367.73481567 23.40554226 406.13256836 43.62597656 C432.01418772 57.93866055 450.52125666 82.2438824 458.90258789 110.39599609 C460.80486989 117.09536975 462.24241454 123.78911593 463.09008789 130.70849609 C463.20094727 131.57216797 463.31180664 132.43583984 463.42602539 133.32568359 C464.3167287 141.4383056 464.18210419 149.5599416 464.09008789 157.70849609 C463.43008789 157.70849609 462.77008789 157.70849609 462.09008789 157.70849609 C461.68918945 156.72751953 461.28829102 155.74654297 460.87524414 154.73583984 C450.56706794 130.0363386 436.06487198 108.87823023 410.73852539 98.11083984 C385.9293332 88.57497261 361.33245617 93.12391444 336.82543945 100.85839844 C319.81180406 106.14592775 302.63643028 110.59920248 285.09008789 113.70849609 C284.18613281 113.87365723 283.28217773 114.03881836 282.35083008 114.20898438 C252.16393072 119.47616801 218.22730015 119.05139467 188.09008789 113.70849609 C186.95474609 113.50981934 185.8194043 113.31114258 184.6496582 113.10644531 C118.49256131 101.17457226 53.04232727 72.15320207 9.09008789 19.70849609 C8.55158203 19.07169922 8.01307617 18.43490234 7.45825195 17.77880859 C5.63712837 15.61838822 3.83015013 13.44692025 2.02758789 11.27099609 C1.44211182 10.57176025 0.85663574 9.87252441 0.25341797 9.15209961 C-0.55639526 8.16101196 -0.55639526 8.16101196 -1.38256836 7.14990234 C-1.86991455 6.55894775 -2.35726074 5.96799316 -2.859375 5.35913086 C-3.90991211 3.70849609 -3.90991211 3.70849609 -3.90991211 0.70849609 C-1.90991211 -0.29150391 -1.90991211 -0.29150391 0 0 Z " fill="#FD4E00" transform="translate(570.909912109375,192.29150390625)"/>
<path d="M0 0 C-0.33 0.66 -0.66 1.32 -1 2 C-1.66 1.67 -2.32 1.34 -3 1 C-5.41797856 0.70368183 -7.82035165 0.45594501 -10.24609375 0.24609375 C-10.97184097 0.18092056 -11.6975882 0.11574738 -12.44532776 0.04859924 C-13.98770432 -0.08869938 -15.53026892 -0.22389903 -17.07299805 -0.35717773 C-19.39760942 -0.55903609 -21.72123372 -0.77023213 -24.04492188 -0.98242188 C-42.35814586 -2.61642531 -59.16980791 -2.88748748 -74.5546875 8.96875 C-77.1249536 11.23518272 -79.56950317 13.58425581 -82 16 C-83.0139688 16.98864457 -84.02830782 17.97690954 -85.04296875 18.96484375 C-89.93830031 23.76656123 -94.68536602 28.65708735 -99.15234375 33.86328125 C-118.47726417 56.21155074 -139.24892557 77.47530525 -165.20556641 91.99121094 C-166.93519441 92.9635678 -168.6458242 93.96948434 -170.35546875 94.9765625 C-214.94190557 120.26740011 -268.6706664 125.9672041 -319 125 C-319 124.01 -319 123.02 -319 122 C-318.46745605 121.79955078 -317.93491211 121.59910156 -317.38623047 121.39257812 C-301.48226323 115.35543627 -287.51072363 108.50388603 -274 98 C-273.13117187 97.32453125 -272.26234375 96.6490625 -271.3671875 95.953125 C-261.5284742 88.09362808 -251.78345259 79.64934338 -243.703125 69.95703125 C-241.57993244 67.51730769 -239.30222596 65.27120795 -237 63 C-234.04816975 60.08373397 -231.19611141 57.15394165 -228.5 54 C-225.01601992 49.92440066 -221.22149464 46.20493824 -217.40625 42.44140625 C-215.33263807 40.33749804 -213.40245875 38.1944263 -211.5 35.9375 C-208.15275479 32.03368709 -204.44176846 28.664451 -200.58203125 25.2734375 C-198.9339913 23.82236451 -197.30412587 22.35020243 -195.69921875 20.8515625 C-183.9855746 9.94507703 -170.99799751 0.72640245 -157 -7 C-156.37158203 -7.35046387 -155.74316406 -7.70092773 -155.09570312 -8.06201172 C-110.11129123 -32.82627299 -40.14719813 -35.51846234 0 0 Z " fill="#FD4E00" transform="translate(1075,462)"/>
<path d="M0 0 C-0.33 0.99 -0.66 1.98 -1 3 C-5.29869995 4.19363526 -8.36073093 3.70422799 -12.6875 2.75 C-61.34486519 -7.13298516 -107.13791699 -1.71805395 -149.36547852 24.96459961 C-188.14153529 49.45077249 -231.40109489 61.49583072 -277.0625 61.3125 C-278.00743317 61.31067719 -278.95236633 61.30885437 -279.92593384 61.30697632 C-294.48423975 61.25977648 -308.65081918 60.62113767 -323 58 C-324.4835498 57.75056641 -324.4835498 57.75056641 -325.99707031 57.49609375 C-340.8940206 54.9656272 -356.23846233 51.50769178 -369 43 C-369 41.68 -369 40.36 -369 39 C-367.8864917 39.18175781 -367.8864917 39.18175781 -366.75048828 39.3671875 C-322.3205993 46.46178055 -284.7541308 41.90580144 -247.02734375 16.02539062 C-213.7462186 -6.63780234 -176.7322363 -23.06123124 -137 -30 C-136.31421875 -30.12842285 -135.6284375 -30.2568457 -134.921875 -30.38916016 C-89.68282653 -38.60712755 -36.43827943 -28.77740127 0 0 Z " fill="#FD4E00" transform="translate(1009,410)"/>
<path d="M0 0 C15.42612324 7.90695057 28.84386996 18.18715192 42.46875 28.83984375 C43.28230957 29.47567383 44.09586914 30.11150391 44.93408203 30.76660156 C46.50200957 31.99227806 48.06988215 33.21802487 49.63769531 34.44384766 C53.23853573 37.25492131 56.84797265 40.05449582 60.46875 42.83984375 C61.0879834 43.31679687 61.7072168 43.79375 62.34521484 44.28515625 C73.87053286 53.08071102 85.98502715 59.52826177 99.71875 64.21484375 C100.41452148 64.45364258 101.11029297 64.69244141 101.82714844 64.93847656 C112.37921875 68.33776821 122.87397003 69.16545047 133.90625 69.08984375 C135.59331055 69.10144531 135.59331055 69.10144531 137.31445312 69.11328125 C144.21919013 69.09741741 150.78202654 68.46929052 157.58764648 67.31640625 C160.99475614 66.75283723 164.33670809 66.4419564 167.78125 66.21484375 C168.87050781 66.14007813 169.95976563 66.0653125 171.08203125 65.98828125 C172.26345703 65.91480469 172.26345703 65.91480469 173.46875 65.83984375 C173.46875 66.49984375 173.46875 67.15984375 173.46875 67.83984375 C127.02723633 92.76893965 73.96399181 88.58997136 24.68701172 73.84912109 C-11.77275281 62.41499376 -44.74981435 43.63305507 -74.53125 19.83984375 C-75.47226562 19.0921875 -76.41328125 18.34453125 -77.3828125 17.57421875 C-83.10296855 12.96586768 -88.58152825 8.14347169 -93.984375 3.16796875 C-96.11336386 1.22183783 -98.27281653 -0.66589057 -100.46875 -2.53515625 C-104.06732149 -5.6839063 -107.5377468 -8.95582365 -110.96875 -12.28515625 C-111.50169678 -12.78837402 -112.03464355 -13.2915918 -112.58374023 -13.81005859 C-115.60184167 -16.78168254 -117.22527717 -18.87653663 -117.53125 -23.16015625 C-83.82553602 -34.39539424 -30.08487072 -15.02232515 0 0 Z " fill="#FD4E00" transform="translate(619.53125,131.16015625)"/>
<path d="M0 0 C8.1395868 6.42829901 15.62237075 13.48307945 22.86254883 20.89111328 C38.19317307 36.51692477 54.15485353 46.11653356 74.75 53.6875 C73.23280778 58.23907665 69.88616437 59.06889691 65.765625 61.203125 C44.41561765 71.71219597 19.92794739 72.6034092 -2.70703125 65.62109375 C-20.70647082 59.15154429 -33.75670514 47.39945389 -46.875 33.9375 C-66.17520623 14.27078682 -89.47907333 7.01524042 -116.25 3.6875 C-112.7090407 -0.15297653 -109.15105024 -2.83039275 -104.5 -5.25 C-103.85458252 -5.58918457 -103.20916504 -5.92836914 -102.54418945 -6.27783203 C-97.63447776 -8.7770439 -92.62529399 -10.84011935 -87.4375 -12.6875 C-86.76944336 -12.925896 -86.10138672 -13.16429199 -85.41308594 -13.40991211 C-56.47567282 -23.21506347 -24.51502889 -17.77419086 0 0 Z " fill="#FD4E00" transform="translate(1125.25,506.3125)"/>
<path d="M0 0 C42.7114574 -0.64774725 42.7114574 -0.64774725 60 3 C61.22058105 3.25740967 61.22058105 3.25740967 62.46582031 3.52001953 C86.95773818 8.91711604 107.17691403 19.35388085 125 37 C125.65097656 37.59039063 126.30195312 38.18078125 126.97265625 38.7890625 C135.2745997 46.4433366 141.76469832 56.44927317 147.125 66.3125 C153.1754216 77.22047553 161.90352207 86.3750566 172.796875 92.59765625 C173.52390625 93.06042969 174.2509375 93.52320313 175 94 C175 94.66 175 95.32 175 96 C154.13365903 100.28027507 131.79629034 91.39046732 114 81 C102.35072188 73.30217889 92.45733197 63.56970009 82.7409668 53.62353516 C61.08358994 31.46093681 38.73003614 15.14989536 9.20800781 4.80419922 C6.0775079 3.66401051 3.04518439 2.35022327 0 1 C0 0.67 0 0.34 0 0 Z " fill="#FD4E00" transform="translate(631,724)"/>
</svg>
