<?xml version="1.0" standalone="no"?>
<!DOCTYPE svg PUBLIC "-//W3C//DTD SVG 20010904//EN"
 "http://www.w3.org/TR/2001/REC-SVG-20010904/DTD/svg10.dtd">
<svg version="1.0" xmlns="http://www.w3.org/2000/svg"
 width="1320.000000pt" height="1266.000000pt" viewBox="0 0 1320.000000 1266.000000"
 preserveAspectRatio="xMidYMid meet">

<g transform="translate(0.000000,1266.000000) scale(0.100000,-0.100000)"
fill="#b9251b" stroke="none">
<path d="M1312 12648 c-41 -5 -128 -25 -195 -44 -288 -83 -476 -191 -673 -388
-235 -236 -361 -483 -419 -821 -14 -80 -15 -636 -15 -5066 0 -4371 1 -4988 14
-5075 48 -313 198 -597 436 -828 212 -205 453 -332 754 -399 l101 -22 5285 0
5285 0 101 22 c315 70 549 197 770 417 218 218 343 447 416 765 l22 96 3 2558
3 2557 -1585 -2 -1585 -3 -27 -28 -28 -27 0 -580 0 -580 28 -27 27 -28 478 -5
c517 -5 506 -4 558 -62 55 -59 55 -62 52 -422 l-3 -334 -30 -43 c-16 -23 -50
-53 -74 -66 l-44 -23 -714 0 -713 0 0 2880 c0 2211 -3 2885 -12 2905 -25 55
-23 55 -587 55 -382 0 -527 -3 -546 -12 -59 -27 -55 188 -55 -2948 l0 -2880
-600 0 -600 0 0 906 c0 687 -3 917 -12 948 -16 52 -72 108 -124 124 -32 9
-385 12 -1538 12 -1359 0 -1500 1 -1529 16 -45 23 -76 53 -98 96 -18 36 -19
79 -19 1323 0 1244 1 1287 19 1323 22 43 53 73 98 96 29 14 118 16 868 16 802
0 837 -1 873 -19 43 -22 73 -53 96 -98 14 -28 16 -98 16 -610 0 -393 4 -591
11 -618 15 -54 82 -120 137 -134 29 -8 181 -11 504 -9 l463 3 45 27 c28 16 55
43 70 70 l25 43 3 1070 c2 818 0 1080 -9 1114 -16 56 -71 112 -125 129 -60 18
-4348 18 -4408 0 -52 -16 -108 -72 -124 -124 -18 -60 -18 -4608 0 -4668 16
-52 72 -108 124 -124 32 -9 396 -12 1588 -12 1501 0 1548 -1 1584 -19 43 -22
73 -53 96 -98 14 -28 16 -82 16 -408 l0 -375 -2047 2 -2048 3 -58 23 c-81 33
-168 116 -210 201 l-32 66 0 2940 0 2940 23 75 c52 164 149 307 276 406 79 63
200 124 296 151 62 17 239 18 4315 18 l4250 0 78 -27 c219 -74 381 -236 455
-453 l27 -80 3 -1547 2 -1548 1040 0 1040 0 0 1908 c0 2039 0 2034 -49 2237
-64 261 -190 490 -380 689 -168 174 -375 305 -605 381 -118 39 -213 60 -348
74 -125 14 -10397 13 -10506 -1z m5826 -9975 l-3 -1518 -23 -33 c-13 -17 -40
-44 -59 -60 l-36 -27 -2261 0 -2261 0 -33 23 c-17 13 -44 40 -60 59 l-27 36 0
1203 0 1202 31 39 c17 21 48 48 70 60 l39 23 590 -3 590 -2 33 -23 c17 -13 44
-40 60 -59 l27 -36 5 -516 c5 -480 6 -519 24 -554 21 -43 64 -79 115 -96 50
-16 1638 -16 1695 1 52 16 108 72 124 124 9 31 12 242 12 858 l0 816 675 0
675 0 -2 -1517z m2402 -34 l0 -1551 -29 -29 -29 -29 -542 0 -542 0 -29 29 -29
29 0 1551 0 1551 600 0 600 0 0 -1551z"/>
</g>
</svg>
